<svg xmlns="http://www.w3.org/2000/svg" viewBox="0 0 168 168" role="img" aria-label="Spotify logo">
  <title>Spotify Downloader</title>
  <circle cx="84" cy="84" r="84" fill="#0a0a0a" />
  <g transform="translate(6 10) scale(0.92)">
    <path
      fill="#1DB954"
      d="M120.6 109.1c-1.5 0-2.5-.6-3.9-1.4-23-13.5-51.6-13.5-74.5-8-1.4.4-3.2.9-4.6.9-3.2 0-5.1-2.5-5.1-5.3 0-3.4 2.1-5.1 4.8-5.8 28-6.5 60.1-6.5 86.4 9.1 1.9 1.1 3.1 2.5 3.1 5.5 0 3.1-2.5 5-5.6 5zm6.4-24.5c-1.8 0-3.1-.7-4.4-1.5-24.2-14.4-61.3-18.4-88.9-8.3-1.6.6-2.5 1-4 .1-1.9-1.1-2.8-3-2.8-5 0-2.8 1.8-4.4 3.8-5.2 32-11.3 72-7 99.1 9.7 2.1 1.3 3.3 3 3.3 5.7 0 3.1-2.5 5-6.1 5zm7.3-27.3c-1.8 0-2.9-.4-4.7-1.5-27.8-16.7-75.7-18.5-106.2-8.5-1.7.6-2.7 1-4.4.1-1.9-1-3-2.9-3-5.1 0-2.6 1.4-4.6 3.8-5.4 33.5-11 86.3-9 118.8 9.8 2.3 1.3 3.6 3 3.6 5.9 0 3.4-2.7 5.7-6.9 5.7z"
    />
  </g>
</svg>
